<?xml version="1.0" encoding="UTF-8"?>
<svg id="Layer_2" xmlns="http://www.w3.org/2000/svg" viewBox="0 0 97.22 48.91">
  <defs>
    <style>
      .cls-1 {
        fill: #fff;
      }

      .cls-2 {
        fill: #005af0;
      }
    </style>
  </defs>
  <g id="Layer_1-2" data-name="Layer_1">
    <path class="cls-2" d="M13.86.32h6.36v15.01c0,1.78-.43,3.33-1.28,4.63-.85,1.3-2.03,2.3-3.55,3.01s-3.28,1.06-5.29,1.06-3.79-.35-5.31-1.06c-1.52-.71-2.7-1.71-3.54-3.01s-1.26-2.84-1.26-4.63V.32h6.36v14.46c0,.72.16,1.37.48,1.94.32.57.76,1.01,1.33,1.33.57.32,1.21.48,1.94.48s1.38-.16,1.95-.48c.56-.32,1.01-.76,1.33-1.33.32-.57.48-1.21.48-1.94V.32Z"/>
    <path class="cls-2" d="M23.25,23.75V.32h10.11c1.74,0,3.26.34,4.56,1.03s2.32,1.65,3.04,2.89c.72,1.24,1.09,2.7,1.09,4.36s-.37,3.13-1.12,4.36c-.74,1.23-1.79,2.17-3.12,2.84-1.34.66-2.9.99-4.68.99h-6.04v-4.94h4.76c.75,0,1.39-.13,1.92-.39.53-.26.94-.64,1.22-1.13.29-.49.43-1.06.43-1.73s-.14-1.25-.43-1.72c-.29-.48-.69-.84-1.22-1.1-.53-.26-1.17-.38-1.92-.38h-2.24v18.35h-6.36Z"/>
    <path class="cls-2" d="M67.09,12.03c0,2.61-.51,4.81-1.52,6.6-1.01,1.79-2.38,3.14-4.11,4.06s-3.65,1.38-5.77,1.38-4.06-.46-5.78-1.39-3.09-2.28-4.1-4.07c-1.01-1.79-1.52-3.98-1.52-6.57s.51-4.81,1.52-6.59c1.01-1.79,2.38-3.14,4.1-4.06s3.65-1.38,5.78-1.38,4.04.46,5.77,1.38,3.09,2.27,4.11,4.06,1.52,3.99,1.52,6.59ZM60.54,12.03c0-1.4-.18-2.59-.55-3.55-.37-.96-.92-1.7-1.64-2.2-.72-.5-1.61-.75-2.66-.75s-1.94.25-2.66.75c-.72.5-1.26,1.23-1.64,2.2-.37.97-.55,2.15-.55,3.55s.18,2.59.55,3.55c.37.96.92,1.7,1.64,2.2.72.5,1.61.75,2.66.75s1.94-.25,2.66-.75c.72-.5,1.26-1.23,1.64-2.2.37-.96.55-2.15.55-3.55Z"/>
    <path class="cls-2" d="M95.22,1.32v23.43l-8-.05-8.99-12.26h-.17l.16,12.26-8,.05V1.32h6.66l10.27,12.26h.23V1.32h7.84Z"/>
    <path class="cls-1" d="M0,47.91v-23.43h10.11c1.74,0,3.26.32,4.56.95s2.32,1.54,3.04,2.73c.72,1.19,1.09,2.62,1.09,4.28s-.37,3.09-1.12,4.24c-.74,1.15-1.79,2.02-3.12,2.61s-2.9.88-4.68.88H3.84v-4.94h4.76c.75,0,1.39-.09,1.92-.28.53-.19.94-.49,1.22-.9.29-.41.43-.95.43-1.61s-.14-1.22-.43-1.64c-.29-.42-.69-.74-1.22-.94-.53-.2-1.17-.3-1.92-.3h-2.24v18.35H0ZM13.73,37.16l5.86,10.75h-6.91l-5.72-10.75h6.77Z"/>
    <path class="cls-1" d="M44.2,36.2c0,2.61-.51,4.81-1.52,6.6-1.01,1.79-2.38,3.14-4.11,4.06s-3.65,1.38-5.77,1.38-4.06-.46-5.78-1.39-3.09-2.28-4.1-4.07c-1.01-1.79-1.52-3.98-1.52-6.57s.51-4.81,1.52-6.59c1.01-1.79,2.38-3.14,4.1-4.06s3.65-1.38,5.78-1.38,4.04.46,5.77,1.38,3.09,2.27,4.11,4.06,1.52,3.99,1.52,6.59ZM37.66,36.2c0-1.4-.18-2.59-.55-3.55-.37-.96-.92-1.7-1.64-2.2-.72-.5-1.61-.75-2.66-.75s-1.94.25-2.66.75c-.72.5-1.26,1.23-1.64,2.2-.37.97-.55,2.15-.55,3.55s.18,2.59.55,3.55c.37.96.92,1.7,1.64,2.2.72.5,1.61.75,2.66.75s1.94-.25,2.66-.75c.72-.5,1.26-1.23,1.64-2.2.37-.96.55-2.15.55-3.55Z"/>
    <path class="cls-1" d="M69.01,33.27h-6.45c-.05-.53-.17-1.02-.36-1.45-.19-.44-.46-.81-.8-1.13-.34-.32-.75-.56-1.23-.73-.48-.17-1.03-.26-1.64-.26-1.07,0-1.97.26-2.71.78-.74.52-1.29,1.26-1.67,2.23-.38.97-.57,2.13-.57,3.49,0,1.43.19,2.63.58,3.6s.94,1.69,1.68,2.17c.73.49,1.61.73,2.64.73.59,0,1.11-.07,1.58-.22.47-.15.87-.36,1.21-.65s.62-.62.84-1.02c.22-.4.36-.85.44-1.36l6.45.05c-.08.99-.36,2-.84,3.03-.48,1.03-1.16,1.97-2.04,2.84-.88.87-1.97,1.56-3.27,2.09-1.3.53-2.8.79-4.52.79-2.15,0-4.08-.46-5.78-1.38s-3.05-2.28-4.04-4.07c-.99-1.79-1.48-3.98-1.48-6.58s.5-4.81,1.51-6.59,2.36-3.14,4.07-4.06,3.62-1.38,5.72-1.38c1.48,0,2.84.2,4.08.61,1.24.4,2.33.99,3.27,1.77.94.77,1.69,1.73,2.27,2.86.57,1.13.92,2.42,1.04,3.88Z"/>
    <path class="cls-1" d="M70.22,48.91v-23.43h8.05v9.47h.4l8.92-9.47h9.39l-10.02,10.43,10.26,13h-9.62l-6.66-8.79-2.67,2.75v6.04h-8.05Z"/>
  </g>
</svg>