<?xml version="1.0" encoding="UTF-8"?>
<svg id="Layer_2" data-name="Layer 2" xmlns="http://www.w3.org/2000/svg" viewBox="0 0 166.95 199.17">
  <defs>
    <style>
      .cls-1 {
        fill: #fd00fd;
      }

      .cls-1, .cls-2, .cls-3, .cls-4, .cls-5, .cls-6 {
        stroke-width: 0px;
      }

      .cls-2 {
        fill: #00aced;
      }

      .cls-3 {
        fill: #fffc00;
      }

      .cls-4 {
        fill: #05eeff;
      }

      .cls-5 {
        fill: #ffd81d;
      }

      .cls-6 {
        fill: #ba6cff;
      }
    </style>
  </defs>
  <g id="Layer_1-2" data-name="Layer 1">
    <g>
      <polygon class="cls-1" points="25.25 73.39 15.25 63.39 15.25 70.93 25.25 80.93 25.25 73.39"/>
      <polygon class="cls-3" points="94.68 172.17 72.93 150.42 71.17 150.42 92.92 172.17 99.16 178.41 102.92 182.17 105.75 182.17 95.75 172.17 94.68 172.17"/>
      <polygon class="cls-4" points="101.4 172.17 111.4 182.17 121.78 182.17 111.78 172.17 101.4 172.17"/>
      <polygon class="cls-1" points="113.66 172.17 123.66 182.17 132.15 182.17 122.15 172.17 113.66 172.17"/>
      <polygon class="cls-4" points="25.25 23.98 144.6 23.98 140.81 20.19 134.6 13.98 120.62 0 118.86 0 132.83 13.98 15.25 13.98 15.25 42.93 15.25 42.93 15.25 57.73 25.25 67.73 25.25 23.98"/>
      <polygon class="cls-3" points="160.96 13.98 160.95 13.98 160.95 13.98 144.97 13.98 160.96 29.96 160.96 13.98"/>
      <polygon class="cls-4" points="150.96 30.33 150.95 172.17 128.75 172.17 138.75 182.17 160.95 182.17 160.95 96.86 160.96 96.86 160.96 40.33 150.96 30.33"/>
      <polygon class="cls-4" points="25.25 82.82 15.25 72.82 15.25 83.19 25.25 93.19 25.25 82.82"/>
      <polygon class="cls-1" points="22.12 122.7 32.12 132.7 32.12 127.82 22.12 117.82 22.12 122.7"/>
      <polygon class="cls-1" points="9.14 113.05 19.14 123.05 19.14 118.16 9.14 108.16 9.14 113.05"/>
      <polygon class="cls-1" points="14.14 175.94 4.14 165.94 4.14 170.83 14.14 180.83 14.14 175.94"/>
      <polygon class="cls-6" points="15.65 132.83 27.18 144.37 27.18 133.2 15.65 121.67 15.65 132.83"/>
      <polygon class="cls-4" points="28.15 153.87 16.62 142.33 16.62 153.5 28.15 165.03 28.15 153.87"/>
      <polygon class="cls-6" points="61.59 167.61 50.43 167.61 61.97 179.15 73.13 179.15 61.59 167.61"/>
      <polygon class="cls-4" points="49.12 174.83 37.95 174.83 49.49 186.37 60.65 186.37 49.12 174.83"/>
      <polygon class="cls-1" points="147.46 19.42 137.46 9.42 132.58 9.42 142.58 19.42 147.46 19.42"/>
      <polygon class="cls-1" points="67.82 166.84 62.93 166.84 72.93 176.84 77.82 176.84 67.82 166.84"/>
      <polygon class="cls-4" points="49.77 173.08 39.77 163.08 34.89 163.08 44.89 173.08 49.77 173.08"/>
      <polygon class="cls-6" points="17.6 180.49 27.6 190.49 32.48 190.49 22.48 180.49 17.6 180.49"/>
      <polygon class="cls-6" points="57.38 165.85 62.27 165.85 52.27 155.85 47.38 155.85 57.38 165.85"/>
      <polygon class="cls-1" points="64.08 180.49 74.08 190.49 78.96 190.49 68.96 180.49 64.08 180.49"/>
      <polygon class="cls-1" points="161.32 36.39 161.32 33.27 151.32 23.27 151.32 28.16 153.11 29.95 166.95 43.79 166.95 42.02 161.32 36.39"/>
      <polygon class="cls-1" points="63.81 183.11 35.81 155.12 34.05 155.12 62.04 183.11 63.81 183.11"/>
      <polygon class="cls-1" points="65.76 163.9 37.77 135.91 36 135.91 64 163.9 65.76 163.9"/>
      <polygon class="cls-3" points="143.56 11.68 136.79 4.92 135.03 4.92 141.79 11.68 143.56 11.68"/>
      <polygon class="cls-1" points="69.26 160.65 97.25 188.64 99.01 188.64 71.02 160.65 69.26 160.65"/>
      <polygon class="cls-6" points="38.4 179.75 41.63 182.98 43.39 182.98 40.16 179.75 38.4 179.75"/>
      <polygon class="cls-1" points="33.37 184.11 36.59 187.34 38.36 187.34 35.13 184.11 33.37 184.11"/>
      <polygon class="cls-1" points="60.44 190.11 63.66 193.33 65.43 193.33 62.2 190.11 60.44 190.11"/>
      <polygon class="cls-6" points="9.57 143.74 9.57 145.51 12.79 148.73 12.79 146.97 9.57 143.74"/>
      <polygon class="cls-5" points="4.9 100.7 1.67 97.47 1.67 99.23 4.9 102.46 4.9 100.7"/>
      <polygon class="cls-5" points="16.58 174.26 19.81 177.48 19.81 175.72 16.58 172.49 16.58 174.26"/>
      <polygon class="cls-3" points="25.25 104.5 37.59 116.84 37.59 115.08 25.25 102.74 25.25 97.9 15.25 87.9 15.25 92.74 9.6 87.09 9.6 88.85 15.25 94.5 25.25 104.5"/>
      <polygon class="cls-1" points="16.55 105.59 44.55 133.58 44.55 131.81 16.55 103.82 16.55 105.59"/>
      <polygon class="cls-4" points="13.84 141.15 0 127.31 0 129.07 13.84 142.91 13.84 141.15"/>
      <polygon class="cls-6" points="17.6 170.29 3.76 156.45 3.76 158.22 17.6 172.06 17.6 170.29"/>
      <polygon class="cls-6" points="34.36 124.87 6.37 96.88 6.37 98.64 34.36 126.64 34.36 124.87"/>
      <polygon class="cls-4" points="78.98 161.03 76.49 161.03 94.74 179.28 97.23 179.28 78.98 161.03"/>
      <polygon class="cls-1" points="53.25 140.16 50.76 140.16 69.01 158.4 71.5 158.4 53.25 140.16"/>
      <polygon class="cls-6" points="80.57 174.09 62.32 155.84 59.83 155.84 78.08 174.09 80.57 174.09"/>
      <polygon class="cls-1" points="76.09 180.92 94.34 199.17 96.83 199.17 78.58 180.92 76.09 180.92"/>
      <polygon class="cls-4" points="17.57 100.87 17.57 103.36 35.81 121.6 35.81 119.11 17.57 100.87"/>
      <polygon class="cls-1" points="6.8 128.59 25.04 146.83 25.04 144.35 6.8 126.1 6.8 128.59"/>
      <polygon class="cls-6" points="53.01 145.29 34.76 127.04 34.76 129.53 53.01 147.77 53.01 145.29"/>
      <polygon class="cls-5" points="37.13 170.08 32.91 165.86 32.91 170.08 32.91 170.08 32.91 170.08 37.13 170.08"/>
      <polygon class="cls-1" points="10.4 187.86 10.4 187.86 10.4 187.86 17.89 187.86 10.4 180.36 10.4 187.86"/>
      <polygon class="cls-5" points="30.45 160.47 30.45 160.47 30.45 160.47 34.67 160.47 30.45 156.25 30.45 160.47"/>
      <polygon class="cls-2" points="42.35 158.43 46.57 162.65 46.57 158.43 46.57 158.43 46.57 158.43 42.35 158.43"/>
      <polygon class="cls-1" points="141.11 26.97 149.1 34.96 149.1 26.97 149.1 26.97 149.1 26.97 141.11 26.97"/>
      <polygon class="cls-3" points="30.26 149.86 30.26 149.86 30.26 149.86 46.25 149.86 30.26 133.87 30.26 149.86"/>
      <polygon class="cls-3" points="21.51 177.96 21.51 177.97 37.5 177.97 32.38 172.85 21.51 161.98 4.39 144.86 4.39 146.62 21.51 163.74 21.51 177.96 21.51 177.96"/>
    </g>
  </g>
</svg>