<?xml version="1.0" encoding="UTF-8"?>
<svg id="Layer_2" data-name="Layer 2" xmlns="http://www.w3.org/2000/svg" viewBox="0 0 580.39 800">
  <defs>
    <style>
      .cls-1 {
        fill: #05eeff;
        stroke-width: 0px;
      }
    </style>
  </defs>
  <g id="Capa_1" data-name="Capa 1">
    <g>
      <path class="cls-1" d="M580.24,191.7c-.05-3.67-1.23-7.28-3.73-10.16L422.26,5.35s-.08-.07-.12-.1c-.92-1.03-1.98-1.87-3.11-2.62-.34-.22-.68-.42-1.03-.61-1-.54-2.02-.97-3.1-1.29-.29-.08-.55-.21-.86-.27-1.16-.28-2.37-.45-3.58-.45H31.37C14.08,0,0,14.07,0,31.37v737.25c0,17.29,14.08,31.37,31.37,31.37h517.65c17.3,0,31.37-14.08,31.37-31.37V193.46c0-.59-.09-1.17-.15-1.76ZM31.37,31.37h363.4v160.51c0,8.66,7.02,15.69,15.69,15.69h138.56l.02,325.11H31.37V31.37ZM152.3,725.21h-31.43v-59.93h-51.92v59.93h-31.62v-143.23h31.62v55.04h51.92v-55.04h31.43v143.23ZM276.36,609.19h-38.04v116.02h-31.63v-116.02h-37.42v-27.21h107.09v27.21ZM412.22,725.21l-2.07-54.82c-.61-17.21-1.24-38.04-1.24-58.87h-.61c-4.35,18.28-10.14,38.68-15.52,55.47l-16.94,55.88h-24.6l-14.89-55.45c-4.55-16.79-9.31-37.19-12.62-55.9h-.41c-.82,19.35-1.46,41.45-2.46,59.3l-2.5,54.4h-29.15l8.88-143.23h41.98l13.65,47.81c4.35,16.58,8.68,34.43,11.8,51.22h.61c3.94-16.58,8.68-35.48,13.23-51.42l14.89-47.6h41.15l7.64,143.23h-30.82ZM554.3,725.21h-87.06v-143.23h31.63v116.02h55.41v27.21h0Z"/>
      <polygon class="cls-1" points="114.06 361.78 234.24 417.61 234.24 391.07 143.35 351.27 143.35 350.77 234.24 310.96 234.24 284.43 114.06 340.25 114.06 361.78"/>
      <polygon class="cls-1" points="252.78 427.62 278.06 427.62 331.63 246.12 306.36 246.12 252.78 427.62"/>
      <polygon class="cls-1" points="346.17 310.96 439.06 350.77 439.06 351.27 346.17 391.07 346.17 417.61 466.33 362.53 466.33 339.5 346.17 284.43 346.17 310.96"/>
    </g>
  </g>
</svg>