<?xml version="1.0" encoding="UTF-8"?>
<svg id="Layer_2" data-name="Layer 2" xmlns="http://www.w3.org/2000/svg" viewBox="0 0 799.96 231.96">
  <defs>
    <style>
      .cls-1 {
        fill: #05eeff;
        stroke-width: 0px;
      }
    </style>
  </defs>
  <g id="Layer_1-2" data-name="Layer 1">
    <g>
      <path class="cls-1" d="M0,43.25h27.89v61.97h58.83v-61.97h27.93v152.12h-27.93v-63.27H27.89v63.27H0V43.25h0Z"/>
      <path class="cls-1" d="M203.02,145.82c0,12.73-10.37,23.1-23.11,23.1s-23.1-10.36-23.1-23.1v-65.49h-26.45v65.49c0,27.32,22.23,49.55,49.56,49.55s49.55-22.22,49.55-49.55v-65.49h-26.44v65.49"/>
      <path class="cls-1" d="M303.31,81.09c-13.12,0-22.28,3.81-31.13,12.49v-50.34h-26.54v93.29c0,34.92,25.25,58.83,53.61,58.83,31.53,0,59.16-24.34,59.16-57.14s-25.48-57.14-55.11-57.14h0ZM303.97,170.82c-17.98,0-31.73-15.02-31.73-32.58s13.75-32.59,31.73-32.59c15.24,0,29,15.02,29,32.59s-13.76,32.58-29,32.58h0Z"/>
      <path class="cls-1" d="M402.99,87.78c0-13.34,8.89-17.57,18.62-17.57,7.83,0,18.2,5.92,24.97,13.12l17.35-20.31c-8.67-11.64-26.23-19.68-40.62-19.68-28.78,0-49.52,16.72-49.52,44.44,0,51.42,63.28,35.12,63.28,63.91,0,8.88-8.67,16.72-18.61,16.72-15.67,0-20.75-7.62-27.94-15.66l-19.26,19.89c12.28,15.03,27.51,22.65,45.71,22.65,27.3,0,49.31-16.93,49.31-43.39,0-57.13-63.28-39.36-63.28-64.11"/>
      <path class="cls-1" d="M536.13,79.6c-28.36,0-53.61,23.9-53.61,58.83v93.53h26.54v-50.58c8.85,8.68,18,12.49,31.13,12.49,29.63,0,55.11-24.76,55.11-57.14s-27.64-57.13-59.16-57.13h0ZM540.85,169.33c-17.98,0-31.73-15.04-31.73-32.59s13.75-32.59,31.73-32.59c15.23,0,29,15.02,29,32.59s-13.76,32.59-29,32.59h0Z"/>
      <path class="cls-1" d="M790.64,170.82c-15.65,0-20.1-6.77-20.1-17.14v-45.92h24.33v-23.27h-24.33v-30.69l-26.87,12.06v93.54c0,23.92,16.5,35.98,39.13,35.98,3.39,0,8.05-.22,10.59-.85l6.56-24.12c-2.96.2-6.35.42-9.32.42"/>
      <path class="cls-1" d="M720.65,109.11c-5.09-8.75-12.24-15.77-21.19-21.05-6.69-3.89-13.62-6.36-21.43-7.42v-27.81c7.81-3.32,12.66-10.66,12.66-19.22,0-11.68-9.36-21.14-21.03-21.14s-21.2,9.46-21.2,21.14c0,8.57,4.57,15.91,12.38,19.22v27.82c-6.25.9-12.73,2.85-18.65,5.85-12.09-9.18-51.73-39.3-74.92-56.89.55-1.98.97-4.03.97-6.18,0-12.93-10.47-23.41-23.41-23.41s-23.4,10.48-23.4,23.41,10.48,23.41,23.41,23.41c4.41,0,8.49-1.29,12.02-3.41l4.89,3.71,67.24,48.45c-3.55,3.26-6.87,6.98-9.51,11.14-5.37,8.49-8.65,17.84-8.65,28.03v2.13c0,7.15,1.36,13.91,3.67,20.25,2.04,5.54,5.02,10.58,8.71,15.13l-22.32,22.37c-1.98-.73-4.06-1.13-6.23-1.13-4.83,0-9.36,1.89-12.78,5.3-3.42,3.42-5.29,7.96-5.29,12.8,0,4.83,1.88,9.38,5.3,12.79,3.42,3.42,7.96,5.3,12.79,5.3s9.38-1.88,12.8-5.3c3.41-3.42,5.3-7.96,5.3-12.79,0-1.87-.29-3.7-.83-5.43l23.07-23.07c3.16,2.18,6.58,4.02,10.25,5.61,7.24,3.13,15.24,5.04,23.98,5.04h1.6c9.67,0,18.8-2.27,27.37-6.92,9.04-4.91,16.11-11.63,21.45-20.2,5.37-8.6,8.33-18.1,8.33-28.55v-.52c0-10.28-2.38-19.76-7.38-28.45h0ZM692.47,157.5c-6.26,6.96-13.46,11.24-21.59,11.24h-1.34c-4.65,0-9.19-1.28-13.64-3.62-5.02-2.57-8.83-6.24-11.95-10.89-3.22-4.56-4.97-9.54-4.97-14.82v-1.6c0-5.19,1-10.11,3.5-14.76,2.68-5.08,6.31-9.03,11.12-12.17,4.73-3.12,9.78-4.65,15.41-4.65h.52c5.1,0,9.93,1.01,14.49,3.34,4.65,2.49,8.44,5.89,11.38,10.36,2.86,4.47,4.56,9.3,5.1,14.55.09,1.09.13,2.21.13,3.28,0,7.13-2.72,13.74-8.18,19.73h0Z"/>
    </g>
  </g>
</svg>