<?xml version="1.0" encoding="UTF-8"?>
<svg id="Layer_2" data-name="Layer 2" xmlns="http://www.w3.org/2000/svg" viewBox="0 0 698.3 680.19">
  <defs>
    <style>
      .cls-1 {
        fill: #05eeff;
        stroke-width: 0px;
      }
    </style>
  </defs>
  <g id="Layer_1-2" data-name="Layer 1">
    <g>
      <path class="cls-1" d="M0,563.14C0,415.49,0,267.85,0,120.2c.71-5.69,1.18-11.43,2.18-17.07,5.53-31.34,20.71-57.05,45.68-76.8C65.39,12.47,85.36,4.16,107.55,1.13c2.68-.37,5.49.04,8.06-1.13h467.08c2.93,1.17,6.07.72,9.11,1.16,30.05,4.37,55.34,17.73,75.46,40.4,18.15,20.44,28.72,44.29,30.47,71.78.06.99.17,1.96.57,2.87v448.25c-.86.93-.48,2.1-.58,3.16-.15,1.65-.05,3.33-.27,4.97-1.81,13.35-5.57,26.12-11.51,38.23-20.97,42.73-63.84,69.33-112.11,69.34-149.57.04-299.14.02-448.72,0-10.11,0-20.09-1.23-29.93-3.52-45.63-10.6-82.4-48.27-91.93-93.98C1.89,576.2,1.66,569.55,0,563.14ZM283.7,407.01c16.94,0,33.88-.01,50.82,0,3.78,0,3.19-.41,4.38,3.05,7.39,21.42,14.77,42.85,22.17,64.27,1.53,4.44,2.37,5.03,6.93,5.03,18.93,0,37.86,0,56.79,0,.89,0,1.78.05,2.65-.05,2.43-.28,3.27-1.45,2.72-3.87-.32-1.39-.84-2.75-1.32-4.1-34.76-98.05-69.53-196.09-104.3-294.13-1.4-3.94-1.67-4.13-5.98-4.22-.66-.01-1.33,0-1.99,0-22.58,0-45.17,0-67.75,0-.89,0-1.77-.03-2.66.02-2.9.17-3.7.91-3.68,3.91.09,10.53-2.15,20.59-5.6,30.49-20.89,59.92-41.69,119.86-62.53,179.79-9.77,28.09-19.54,56.17-29.31,84.26-2.35,6.76-1.52,7.91,5.71,7.91,16.61,0,33.21,0,49.82,0,4.79,0,5.9-.81,7.39-5.41,6.85-21.14,13.69-42.28,20.56-63.4,1.24-3.81.39-3.53,4.68-3.53,16.83-.01,33.66,0,50.48,0ZM462.36,364.27c0,12.39,0,24.78,0,37.17,0,24.56,0,49.12,0,73.67,0,4.4,1.19,5.65,5.41,5.65,18.26.02,36.52.02,54.78,0,3.68,0,4.75-1.07,4.92-4.67.03-.66.01-1.33.01-1.99,0-73.23,0-146.46,0-219.69,0-.88.05-1.78-.05-2.65-.28-2.29-1.33-3.26-3.7-3.42-.88-.06-1.77-.02-2.66-.02-17.49,0-34.97,0-52.46,0-6.05,0-6.27.22-6.27,6.43,0,36.5,0,73.01,0,109.51ZM495.01,223.84c15.24.72,28.67-7.92,34.08-22.45,3.4-9.12,3.53-18.44.36-27.62-3.52-10.18-10.24-17.42-20.65-20.91-3.16-1.06-6.44-1.63-9.75-1.81-14.99-.82-27.08,4.43-35.22,17.39-4.21,6.71-5.32,14.27-4.63,22.01,1.29,14.48,7.97,25.3,21.86,30.94,4.57,1.85,9.34,2.67,13.95,2.43Z"/>
      <path class="cls-1" d="M319.92,347.79h-72.69c-.41-.96-.06-1.69.19-2.4,8.57-24.75,15.32-50.07,23.38-74.98,4.36-13.46,8.31-27.03,11.19-40.9.15-.74.42-1.46.63-2.19.18.05.29.06.39.11.09.04.23.1.25.17,11.14,39.68,23.96,78.84,36.44,118.1.2.62.54,1.23.21,2.1Z"/>
    </g>
  </g>
</svg>