<?xml version="1.0" encoding="UTF-8"?>
<svg id="Layer_2" data-name="Layer 2" xmlns="http://www.w3.org/2000/svg" viewBox="0 0 600 600">
  <defs>
    <style>
      .cls-1 {
        fill: #05eeff;
        stroke-width: 0px;
      }
    </style>
  </defs>
  <g id="Layer_1-2" data-name="Layer 1">
    <path class="cls-1" d="M0,0h600v600H0V0ZM550.83,456.9c-4.37-27.37-22.2-50.37-75.07-71.83-18.4-8.63-38.83-14.6-44.97-28.47-2.27-8.27-2.6-12.73-1.13-17.63,3.77-16.13,22.9-20.97,37.9-16.5,9.77,3,18.77,10.5,24.4,22.53q25.83-16.9,43.87-28.13c-6.77-10.47-10.13-15.03-14.63-19.53-15.77-17.6-36.77-26.6-70.87-25.83l-17.6,2.23c-16.9,4.13-33.03,13.17-42.77,25.13-28.5,32.27-20.27,88.5,14.23,111.8,34.1,25.5,84.03,31.1,90.4,55.1,6,29.27-21.73,38.63-49.17,35.27-20.23-4.53-31.5-14.63-43.87-33.4l-45.73,26.27c5.23,11.97,11.23,17.23,20.23,27.73,43.5,43.87,152.27,41.63,171.77-25.13.7-2.23,6-17.6,1.87-41.23l1.13,1.63h0ZM326.27,275.77h-56.2c0,48.43-.23,96.6-.23,145.13,0,30.8,1.57,59.07-3.47,67.77-8.23,17.23-29.53,15.03-39.17,11.97-9.9-4.87-14.93-11.63-20.77-21.37-1.57-2.6-2.73-4.87-3.17-4.87l-45.6,28.13c7.63,15.77,18.77,29.3,33.13,37.9,21.37,12.77,50.07,16.9,80.13,10.17,19.6-5.67,36.5-17.3,45.27-35.3,12.8-23.23,10.07-51.77,9.97-83.63.27-51.37,0-102.77,0-154.5l.1-1.4h0Z"/>
  </g>
</svg>