<?xml version="1.0" encoding="UTF-8"?>
<svg id="Layer_2" data-name="Layer 2" xmlns="http://www.w3.org/2000/svg" viewBox="0 0 630.75 742.2">
  <defs>
    <style>
      .cls-1 {
        fill: #05eeff;
        stroke-width: 0px;
      }
    </style>
  </defs>
  <g id="Layer_1-2" data-name="Layer 1">
    <g>
      <path class="cls-1" d="M557.53,525.99c6.42.3,9.52,4.71,11.67,10.11,3.72,9.34,5.61,19.13,6.48,29.09.81,9.23,5.37,15.73,12.48,21.55,7.86,6.43,16.93,10.4,25.55,15.35,4.26,2.45,8.46,5.41,11.81,8.95,8.97,9.47,4.96,24.84-1.37,31.02-5.22,5.09-11.27,8.46-17.93,11.45-21.02,9.43-41.66,19.66-59.33,34.87-13.82,11.89-27.52,23.94-41.64,35.46-6.28,5.13-13.15,9.75-20.33,13.51-10,5.24-20.91,5.47-32.09,4.23-15.08-1.67-28.31-6.86-38.88-17.88-2.92-3.04-5.43-6.61-7.48-10.3-1.36-2.44-3-3.22-5.47-3.46-13.98-1.39-27.94-3.21-41.95-4.19-16.55-1.16-33.14-2.12-49.73-2.24-19.45-.14-38.77,1.78-57.4,8-4.02,1.34-7.96,2.97-11.89,4.58-.77.32-1.35,1.17-1.94,1.84-9.41,10.61-20.75,17.72-35.08,19.48-9.32,1.14-18.57.34-27.49-2.25-15.82-4.6-31.5-9.65-47.18-14.73-20.26-6.56-40.59-12.88-61.44-17.28-10.46-2.21-21.09-3.59-31.53-5.89-6.61-1.45-13-3.88-19.47-5.94-1.37-.44-2.68-1.12-3.97-1.77-12.24-6.21-15.25-16.98-8.21-28.89,3.87-6.54,7.68-13.13,11.23-19.85,4.06-7.68,4.34-15.87,3.04-24.37-1.88-12.27-3.82-24.58-4.79-36.94-.99-12.6,2.41-23.94,13.03-32.09,3.57-2.74,7.47-4.27,12.05-4.2,8.53.12,17.06-.03,25.59.06,4.31.04,7.84-1.99,11.4-3.96.61-.34,1.01-1.25,1.3-1.98,1.91-4.79,3.66-9.66,5.68-14.4,1.26-2.97,2.96-5.76,4.35-8.68.32-.67.52-1.75.19-2.31-2.36-4.09-2.25-8.51-2.01-12.97.66-12.7,5.25-24.19,11-35.28,4.38-8.45,8.93-16.81,13.66-25.07,11.48-20.04,20.19-41.24,25-63.79,5.2-24.4,16.95-45.02,33.13-63.65,10.64-12.25,20.79-24.95,30.68-37.82,8.48-11.04,14.47-23.37,16.77-37.33,1.55-9.44.96-18.83-.02-28.21-3.6-34.66-6.98-69.33-6.45-104.25.26-17.08,2.13-33.92,8.92-49.75,7.6-17.74,18.82-32.69,35.92-42.39,9.18-5.21,19.5-7.18,29.79-8.94,12.93-2.21,26.02-3.04,39.05-2.09,23.96,1.75,46.49,7.94,65.99,22.97,12.46,9.6,21.73,21.86,28.34,35.71,4.54,9.53,6.81,20.24,9.31,30.61,3.71,15.36,5.4,31.06,6.71,46.8,1.24,14.91,2.26,29.85,4.19,44.68,1.67,12.82,3.88,25.65,6.96,38.2,4.09,16.67,13.27,31.11,22.54,45.29,8.58,13.13,17.58,25.99,26.75,38.72,5.35,7.42,11.51,14.24,17.11,21.48,14.22,18.4,25.64,38.34,34.31,59.99,4.92,12.29,10.24,24.38,13.36,37.29,6.3,26.09,8.51,52.45,4.72,79.1-1.17,8.22-3.27,16.31-5.01,24.76ZM154.23,502.24c-.35-.06-.55-.05-.68-.13-.46-.29-.9-.61-1.33-.94-9.36-7.29-13.88-17.01-14.18-28.74-.31-12.08,1.59-23.91,5.15-35.39,7.7-24.87,17.16-48.94,33.73-69.53,1.32-1.65.69-2.62-.91-3.36-1.49-.69-3-1.33-5.19-2.29-2.69,4.2-5.89,8.59-8.48,13.32-9.33,17.04-16.89,34.9-23.92,52.98-4.39,11.27-7.52,22.93-8.29,35.07-1.05,16.37,2.71,31.09,14.98,42.91,11.41,10.99,23.74,20.78,36.94,29.51,7.03,4.65,14.56,8.7,21.02,14.04,8.86,7.33,17.17,15.38,25.22,23.61,4.97,5.09,9.48,10.79,13.36,16.75,5.63,8.65,4.35,15.64-3.16,22.83-1.31,1.25-2.78,2.35-4.02,3.66-4.21,4.42-9.13,7.42-15.35,7.85-1.74.12-2.12,1.18-1.47,2.38,3.27,6.03,5.49,12.68,10.39,17.75,4.9,5.05,10.86,8.42,17.36,10.91,10.71,4.1,21.89,5.66,33.27,6.19,21.61,1,42.72-1.5,63.14-8.85,30.16-10.85,53.29-30.72,71.99-56.26.44-.61.75-1.48.74-2.23-.05-4.63.37-9.36-.46-13.85-1.35-7.32-2.52-14.57-1.83-22.02.31-3.34.33-6.71.76-10.03,1.05-8.25,3.01-16.2,7.94-23.16,7.08-10.01,16.91-12.17,27.52-5.9.9.53,1.78,1.09,2.93,1.8.28-2.35.67-4.3.74-6.27.59-17.49,1.31-34.99,1.62-52.49.31-16.9-.96-33.63-4.81-50.23-3.87-16.69-9.02-32.63-19.36-46.56-2.54-3.42-4.96-6.96-7.07-10.65-4.46-7.78-9.46-15.37-12.77-23.63-3.39-8.45-4.87-17.63-4.99-26.89-.01-1.04-.27-2.17-.75-3.08-9.78-18.39-19.88-36.63-27.35-56.15-1.52-3.97-3.44-7.79-5.21-11.66-.32-.69-.77-1.33-1.22-2.1-1.34,1.04-2.48,1.93-3.63,2.81-11.11,8.6-21.96,17.55-34.28,24.48-17.15,9.66-34.98,16.32-55.16,13.91-7.97-.95-15.49-2.86-21.64-8.45-5.03-4.57-10.14-9.05-15.23-13.55-.71-.62-1.49-1.16-2.39-1.87-1.58,13.2-3.39,18.97-9.72,30.96-7.65,14.5-15.77,28.79-20.62,44.58-1.48,4.84-2.63,9.78-3.87,14.68-.93,3.67-1.27,7.6-2.78,11.01-3.18,7.2-7,14.12-10.48,21.2-8.64,17.55-18.25,34.64-24.96,53.11-7.99,21.99-13.53,44.4-12.19,68.04.19,3.3.64,6.58.97,9.92ZM235.27,696.04c.08-12.67-2.49-23.1-6.52-33.2-7.79-19.55-19.47-36.78-32-53.52-10.21-13.64-21.07-26.8-29.54-41.7-5.78-10.16-11.73-20.24-18.11-30.02-7.18-10.99-16.68-19.51-28.93-24.73-4.55-1.94-8.89-2.09-13.67-.65-9.34,2.83-16.11,8.12-18.84,17.78-.66,2.34-1.05,4.78-1.4,7.19-.86,5.97-3.78,9.81-9.92,11.46-5.7,1.54-11.42,1.76-17.22,1.83-8.61.1-17.26,0-25.62,2.53-1.59.48-3.42,1.17-4.43,2.36-6.58,7.76-9.67,16.76-8.44,26.95.67,5.57,1.94,11.06,2.81,16.61,1,6.35,2.32,12.7,2.69,19.1.62,10.59-2.57,20.35-7.57,29.64-3.34,6.21-6.66,12.49-9.25,19.03-2.95,7.43-1.28,11.45,5.43,15.87,1.66,1.09,3.43,2.03,5.24,2.86,8.81,4.04,18.19,6.16,27.71,7.52,23.93,3.42,47.31,9.05,70.17,16.85,17.65,6.02,35.23,12.28,52.96,18.07,6.15,2.01,12.62,3.84,19.02,4.15,12.95.61,24.13-4.47,34.07-12.73,7.92-6.58,12.86-14.23,11.35-23.25ZM458.41,735.22c1.91-.1,3.72-.18,5.53-.3.81-.05,1.62-.21,2.43-.28,14.16-1.22,25.22-9.22,35.87-17.39,10.57-8.1,20.46-17.12,30.32-26.09,20.95-19.05,44.99-32.84,71.33-42.88,2.85-1.09,5.61-2.58,8.18-4.24,10.29-6.68,12.02-20.38,3.75-29.42-5.17-5.65-11.56-9.49-18.61-12.44-8.9-3.72-16.21-9.54-21.45-17.72-3.89-6.08-6.63-12.68-8.21-19.73-1.89-8.39-3.49-16.84-5.56-25.18-1.71-6.89-3.52-7.96-10.61-3.82-.77.45-1.43,1.11-2.08,1.74-2.86,2.77-5.71,5.55-8.55,8.34-2.72,2.67-5.79,5.07-8.06,8.08-4.42,5.86-10.16,10.13-16.21,13.9-8.11,5.05-17.13,6.42-26.67,5.38-13.98-1.52-25.03-7.38-30.94-20.64-2.49-5.59-4.52-11.5-5.86-17.47-.98-4.39-3.44-6.98-6.86-9.17-5.61-3.59-13.11-2.49-17.06,2.86-1.79,2.43-3.16,5.32-4.07,8.2-2.47,7.87-2.8,16.05-2.81,24.23-.03,24.77.02,49.55-.06,74.32,0,2.59-.57,5.19-.98,7.77-1.1,6.88-2.51,13.72-3.3,20.64-.62,5.48-.08,11.1-.81,16.56-1.11,8.26-2.93,16.41-4.29,24.64-.21,1.29.02,2.93.67,4.04,10.05,17.25,25.33,25.52,44.98,26.07ZM231.55,224.21c-.21.16-.42.33-.64.49,2.39,3.66,4.38,7.69,7.27,10.91,5.01,5.6,10.41,10.89,15.94,16,11.37,10.51,24.75,15.1,40.24,12.85,10.47-1.52,20.22-5.34,29.11-10.82,15.74-9.69,31.24-19.78,46.54-30.13,4.77-3.23,8.7-7.89,9.91-13.88.64-3.15,1.16-6.07-2.09-9.21-5.13-4.94-10.94-8.4-17.29-10.98-11.9-4.83-23.94-9.34-36.01-13.75-6.88-2.51-13.9-4.66-20.9-6.82-10.4-3.21-20.56-2.59-30.4,2.26-2.52,1.24-5.13,2.28-7.66,3.5-10.51,5.06-20.38,11.1-28.64,19.47-3.66,3.71-6.88,7.75-8.19,12.94-.32,1.29-.82,3.01-.26,3.95,1.78,3.01,3.62,6.18,6.17,8.48,3.61,3.26,7.75,5.99,11.87,8.6,8.12,5.14,16.83,8.86,26.55,9.69,11.95,1.02,23.22-1.86,34.16-6.29,15.58-6.3,29.53-15.4,42.93-25.41.96-.72,1.94-1.41,3.07-2.22.58,2.24-.48,4.38,1.99,5.66,1.36.71.21,1.8-.76,2.46-13.06,8.88-26.49,17.11-41.12,23.2-11.21,4.67-22.75,8.03-35.04,7.72-14.68-.37-27.76-5.57-39.79-13.7-2.36-1.59-4.63-3.32-6.94-4.98ZM491.08,490.11c.24-1.07.34-1.68.52-2.27,6.79-21.65,9.91-43.81,8.98-66.5-.8-19.56-5.83-37.71-17.96-53.49-6.95-9.04-15.07-16.38-26.5-19.31-2.43-.62-3.36.65-4.2,2.31-1.07,2.12.67,2.54,2.07,3.21,15,7.09,25.79,18.14,31.75,33.77,4.84,12.66,7.25,25.79,7.61,39.3.58,21.9-4.16,42.83-11.75,63.21-.35.94-1.4,1.83-2.34,2.29-11.3,5.61-18.85,14.8-24.59,25.68-.51.97.23,2.61.38,3.94,1.09-.53,2.46-.8,3.22-1.62,3.91-4.27,7.58-8.75,11.49-13.02,5.85-6.4,13.32-9.72,21.85-10.14,13.57-.66,26.71,1.49,39.24,7,5.46,2.4,10.16,5.51,13.23,10.78,2.12,3.64,4.28,7.27,6.59,10.79.55.84,1.75,1.25,2.65,1.86.49-.95,1.55-2.02,1.38-2.84-.68-3.42-1.17-7.07-2.76-10.09-4.1-7.78-10.58-13.27-18.58-16.88-8.43-3.81-17.32-5.78-26.52-6.49-5.21-.4-10.4-.99-15.78-1.51ZM368.13,188.82c.91-5.16,1.75-10.05,2.65-14.92,2.39-12.93,3.39-25.92.73-38.92-1.33-6.5-3.04-12.96-8.58-17.43-10.1-8.15-21.45-9.11-33.34-5.17-3.79,1.26-7.89,3.01-10.6,5.76-3.63,3.7-6.06,8.65-6.79,13.99-1.55,11.33.78,22.1,4.72,32.73,1.64,4.43,5,5.34,8.69,6.61-.51-2.1-1.31-3.97-1.36-5.87-.16-5.34-.35-10.72.08-16.04.62-7.57,4.1-13.56,10.99-17.36,10.57-5.83,20.09-.2,25.39,8.25,4,6.37,5.66,14.27,4.88,22.25-.88,8.98-4.56,15.76-13.71,18.58-.13.04-.19.27-.59.86,1.53.61,2.95,1.23,4.41,1.73,2.79.96,5.64,1.78,8.41,2.81,1.33.49,2.53,1.33,4.03,2.14ZM237.91,186.24c2.52-1.55,4.86-2.98,7.55-4.63-4.94-2.64-9.03-5.73-10.27-10.69-2.85-11.39-4.67-22.73,3.83-33.05,4.25-5.16,12.98-7.66,19.3-2.36,4.25,3.57,5.89,8.17,6.95,13.09,1.28,5.89,1.99,11.9,2.99,18.13.24-.07,1.27-.11,1.39-.46.98-2.89,2.26-5.79,2.55-8.78.43-4.4.18-8.88.11-13.33-.14-9.49-3.89-17.41-10.73-23.88-9.33-8.83-25.05-5.85-30.39,5.55-3.86,8.24-5.99,16.78-6.5,25.9-.76,13.52,3.33,24.96,13.22,34.5ZM359.77,156.84c-.48-2.32-1.41-4.51-1.3-6.64.3-5.85-3.09-9.24-7.43-12.04-.81-.52-2.25-.54-3.22-.23-1.42.45-2.68,1.41-4.34,2.35,1.06,1.43,1.88,3.78,3.26,4.18,4.76,1.37,6.46,5.14,7.79,9.06,1,2.96,2.39,4.27,5.23,3.31ZM252.4,144.67c1.09,4.32,2.08,8.23,3.07,12.14h4.52c.08-5.42-.53-10.57-3.78-14.82-1.45-1.89-3.88-3.06-5.98-4.37-.55-.34-1.82-.29-2.27.12-1.94,1.78-3.85,3.72-2.12,6.92h6.57Z"/>
      <path class="cls-1" d="M272.97,183.83c-2.57.55-3.46-.66-3.08-2.95.3-1.75.62-3.56,1.33-5.16.35-.78,1.56-1.29,2.49-1.66,1.57-.63,3.21-1.11,4.85-1.53.86-.23,2.35-.58,2.58-.24.55.85,1.06,2.36.66,3.08-1.18,2.09-2.69,4.03-4.31,5.8-1.17,1.29-2.73,2.22-4.11,3.31-.13-.22-.27-.44-.4-.66Z"/>
      <path class="cls-1" d="M300.24,184.49c-1.28-.89-2.57-1.56-3.57-2.54-1.08-1.06-2.01-2.34-2.79-3.65-.76-1.29-1.53-2.7-1.76-4.15-.37-2.24.72-2.97,2.91-2.17,3.51,1.29,6.4,3.45,8.22,6.72.63,1.13.9,2.86.5,4.03-.27.78-2.01,1.06-3.51,1.76Z"/>
    </g>
  </g>
</svg>