<?xml version="1.0" encoding="UTF-8"?>
<svg id="Layer_2" data-name="Layer 2" xmlns="http://www.w3.org/2000/svg" viewBox="0 0 637.29 621.25">
  <defs>
    <style>
      .cls-1 {
        fill: #05eeff;
        stroke-width: 0px;
      }
    </style>
  </defs>
  <g id="Layer_1-2" data-name="Layer 1">
    <g>
      <path class="cls-1" d="M637.29,103.72v413.64c-.17,1.38-.88,2.69-.53,4.14-.09,1.31-.09,2.63-.29,3.93-1.52,9.61-4.14,18.91-8.02,27.85-16.86,38.84-55.87,67.99-104.93,67.97-136.32-.06-272.65-.02-408.97,0-6.49,0-12.96-.41-19.33-1.52-33.25-5.79-59.21-22.81-77.55-51.14C5.35,549.56.03,528.42.02,505.9-.01,377.24,0,248.58,0,119.92c0-4.95.14-9.89.49-14.84,1.33-18.92,6.81-36.52,17.15-52.39C37.76,21.84,66.26,4.43,102.96.54c2.36.36,4.61-.57,6.95-.54h418.14c2.16-.08,4.24.87,6.43.51,3.84.16,7.65.72,11.4,1.49,34.29,7.07,60.3,25.73,77.66,56.13,7.43,13.01,12.07,27.03,13.24,42.07-.36,1.25.42,2.33.5,3.52ZM143.71,299.07c0,44.58,0,89.15,0,133.73,0,1.11-.04,2.23.06,3.33.19,1.91.95,2.65,2.88,2.88.8.09,1.62.04,2.42.04,11.23,0,22.45,0,33.68,0,4.35,0,8.7,0,13.05,0,4.79,0,5.55-.79,5.55-5.69,0-.2,0-.4,0-.61,0-26.18,0-52.36,0-78.54,0-.71.05-1.42,0-2.12-.14-1.58.54-2.08,2.11-2.07,3.75,0,7.47.37,11.21.47,15.28.38,30.54.14,45.67-2.36,11.81-1.95,23.35-4.88,34.1-10.28,22.68-11.38,38.71-28.66,45.82-53.32,5.01-17.36,5.71-35.06,1.97-52.78-5.24-24.84-18.65-44.02-40.53-57.07-15.74-9.4-33.04-13.93-51.13-15.72-12.8-1.27-25.65-1.23-38.49-.91-20.93.51-41.85,1.01-62.78,1.46-5.58.12-5.59.03-5.59,5.54,0,44.68,0,89.35,0,134.03ZM372.84,404.71c0,7.07.16,14.15-.06,21.22-.13,3.95,1.53,6.11,5.03,7.65,14.35,6.29,29.53,8.9,44.97,10.32,9.98.92,19.98.95,29.99.13,12.99-1.07,25.61-3.7,37.43-9.29,27-12.77,40.44-38.1,36.44-67.45-2.37-17.36-11.99-30.16-26.49-39.45-11.26-7.21-23.23-13.09-35.83-17.6-7.91-2.83-15.51-6.35-23-10.09-3.37-1.68-6.43-3.81-9.02-6.58-1.4-1.5-2.5-3.18-3.12-5.14-1.87-5.94,1.63-12.45,7.99-14.72,2.95-1.05,6.04-1.61,9.16-2.02,8.91-1.17,17.79-.32,26.59.9,12.75,1.76,25.11,4.94,36.77,10.71,4.59,2.27,6.87.31,6.8-4.31-.21-13.13-.07-26.27-.08-39.41,0-.81,0-1.62-.07-2.42-.21-2.68-1.51-4.43-4.14-5.35-3.91-1.36-7.8-2.77-11.83-3.73-9.47-2.26-19.11-3.19-28.8-3.83-12.75-.84-25.45-.75-38.09,1.4-11.71,1.99-22.61,6.1-32.48,12.73-24.02,16.13-31.45,43.55-25.88,66.26,3.7,15.09,12.93,26.33,25.4,35.03,10.64,7.43,22.22,13.17,34.39,17.71,7.95,2.96,15.84,6.06,23.34,10.08,3.51,1.88,6.73,4.12,9.15,7.34,3.17,4.22,3.24,9.16.29,13.54-1.46,2.17-3.48,3.63-5.85,4.64-4.71,2-9.69,2.85-14.75,3.08-8.19.38-16.36.16-24.5-1.1-15.8-2.45-30.92-6.9-44.88-14.87-3.71-2.12-4.8-1.46-4.86,2.82,0,.61,0,1.21,0,1.82,0,6.67,0,13.34,0,20.01Z"/>
      <path class="cls-1" d="M201.56,255.35c0-13.54,0-27.07,0-40.61,0-.71.06-1.42,0-2.12-.16-1.63.68-2.17,2.15-2.12.2,0,.4-.02.61-.02,11.62.03,23.25-.57,34.86-.02,8.76.42,17.22,2.4,25.15,6.14,12.03,5.66,19.06,15.33,21.48,28.27,1.52,8.14,1.06,16.3-1.09,24.31-1.58,5.89-4.61,10.91-8.97,15.2-6.76,6.66-14.97,10.47-24.05,12.75-7.97,2-16.03,3.23-24.26,3.23-7.38,0-14.76.15-22.13-.17-.81-.04-1.62-.08-2.42-.16-.81-.07-1.3-.48-1.29-1.36,0-.81-.02-1.62-.02-2.42,0-13.64,0-27.27,0-40.91Z"/>
    </g>
  </g>
</svg>