<?xml version="1.0" encoding="UTF-8"?>
<svg id="Layer_2" data-name="Layer 2" xmlns="http://www.w3.org/2000/svg" viewBox="0 0 685.71 681.14">
  <defs>
    <style>
      .cls-1 {
        fill: #05eeff;
        stroke-width: 0px;
      }
    </style>
  </defs>
  <g id="Layer_1-2" data-name="Layer 1" focusable="false">
    <path class="cls-1" d="M314.86,679.61c-32.97-2.63-68.09-10.47-85.14-19.02-19.99-10.02-40.98-28.93-48.42-43.61-8.58-16.93-8.53-16.33-9.13-113.08-.4-63.49-.06-91.54,1.14-97.78,3.02-15.63,9.3-26.35,23.94-40.87,14.55-14.42,28.55-22.71,43.29-25.63,5.28-1.03,40-1.43,104.24-1.2,95.2.57,96.46.57,108-2.86,21.09-5.78,44.05-24.22,54.44-43.72,11.11-20.84,13.42-35.81,13.42-86.87v-40.58s43.5.57,43.5.57l43.5.57,9.83,4.97c32.45,16.48,54.86,56.59,65.25,116.78,3.35,19.39,3.99,58.83,1.35,82.55-5.2,46.69-19.67,83.85-41.78,107.28-18.31,19.41-32.71,25.65-64.61,27.97-20.57,1.49-92.78,1.03-190.95-1.2l-41.23-.97v10.17l30.88.97c16.99.57,51.71.97,77.17.97s48.34.57,50.85.91l4.56.91v33.19c0,50.38-4.38,68.25-21.03,85.91-32.34,34.27-94.74,50.07-173.08,43.83v-.19ZM376.16,668.85c48.92-2.51,97.89-25.5,112.71-52.83,7.41-13.67,8.9-23.13,9.04-57.38l.11-31.38-24.08-.91c-13.25-.57-48.38-.97-78.08-1.09-29.7,0-55.48-.63-57.29-1.09-3.15-.86-3.29-1.54-3.29-16.78v-15.9l40.5,1.09c22.28.63,79.91,1.09,128.07,1.09,92.69,0,93.93,0,108-6.96,22.89-11.2,42.35-38.37,52.52-73.32,7.78-26.74,9.92-43.81,10.09-80.26.17-38.29-1.9-52.56-12.17-83.85-11.59-35.29-27.8-57.91-49.33-68.85l-9.69-4.91-24.9-.57c-13.69-.57-29.66-.05-35.48.57l-10.58.97v28.27c0,15.55-.73,35.04-1.62,43.3-3.99,36.94-16.92,62.22-41.11,80.39-12.43,9.34-20.16,13.46-33.13,17.63-9.3,3.03-11.88,3.09-111.69,3.09l-102.16.03-8.22,3.31c-10.91,4.4-27.14,15.94-34.67,24.66-8.37,9.69-14.56,22.77-16.42,34.71-2.07,13.28-.73,172.13,1.53,182.49,4.32,19.74,20.02,39.21,41.9,51.94,17.17,9.99,32.94,14.86,63.41,19.55,16.91,2.63,51.89,4.91,63.4,4.23,4.01,0,14.19-.8,22.62-1.26h.01ZM426.51,629.22c-13.12-3.2-21.9-9.64-27.41-20.13-4.22-8.03-4.42-23.97-.4-32.07,17.57-35.42,70.91-23.43,70.83,15.91-.04,19.29-13.67,34.03-33.52,36.25-3.61.57-7.88.57-9.49.03h0ZM74.75,497.63c-32.33-11.18-55-44.27-68.67-100.27-5.46-22.35-7.29-49.31-5.3-78.11,2.91-42.29,8.57-66.49,21.81-93.37,7.07-14.37,9.95-18.48,20.01-28.63,12.7-12.81,25.78-20.35,41.67-24.03,6.01-1.37,39.28-2.06,132.08-2.69l124.06-.86v-18.97l-81.2-.57-81.2-.57-.88-3.26c-1.41-5.26-.99-56.03.58-71.01,2.4-22.78,7.15-34.86,18.45-46.94,8.11-8.67,25.54-17.47,42.82-21.62,24.89-5.98,36.13-6.73,100.7-6.73s81.83,1.14,100.66,6.83c25.74,7.81,52.07,31.76,59.89,54.49,5.06,14.7,5.83,29.72,5.81,112.33-.02,87.55-.34,91.37-8.41,106.44-8.56,15.95-31.43,34.85-51.06,42.18-8.17,3.03-10.44,3.14-94.49,3.43-90.59.57-115.47,1.54-130.77,6.28-22.76,7.07-44.42,25.19-54.5,45.6-9.6,19.42-9.94,21.8-10.63,73.54l-.63,46.84-27.25.97c-39.03,1.37-45.34,1.14-53.53-1.66v.37ZM264.62,102.76c9.72-6.48,13.02-12.87,13.02-25.15,0-9.41-.46-11.25-4.45-16.89-9.11-12.98-25.55-17.01-39.7-9.73-22.38,11.52-21.32,43.17,1.81,54.04,8.32,3.89,21.58,2.91,29.31-2.29v.02Z"/>
  </g>
</svg>