<?xml version="1.0" encoding="UTF-8"?>
<svg id="Layer_2" data-name="Layer 2" xmlns="http://www.w3.org/2000/svg" xmlns:xlink="http://www.w3.org/1999/xlink" viewBox="0 0 472.14 413.87">
  <defs>
    <style>
      .cls-1 {
        fill: url(#linear-gradient);
      }

      .cls-1, .cls-2 {
        stroke-width: 0px;
      }

      .cls-2 {
        fill: url(#linear-gradient-2);
      }
    </style>
    <linearGradient id="linear-gradient" x1="235.29" y1="484.25" x2="237.12" y2="-88.08" gradientUnits="userSpaceOnUse">
      <stop offset=".35" stop-color="#05eeff"/>
      <stop offset=".4" stop-color="#0eeef5"/>
      <stop offset=".5" stop-color="#27efdb"/>
      <stop offset=".61" stop-color="#51f2b1"/>
      <stop offset=".76" stop-color="#8af576"/>
      <stop offset=".91" stop-color="#d3f92c"/>
      <stop offset="1" stop-color="#fffc00"/>
    </linearGradient>
    <linearGradient id="linear-gradient-2" x1="246.62" y1="484.29" x2="248.45" y2="-88.04" gradientUnits="userSpaceOnUse">
      <stop offset=".35" stop-color="#05eeff"/>
      <stop offset="1" stop-color="#fffc00"/>
    </linearGradient>
  </defs>
  <g id="Layer_1-2" data-name="Layer 1">
    <g>
      <path class="cls-1" d="M464.59,236.67c-10.74-1.63-21.91-1.66-33.21.12-4.71.74-9.3,1.78-13.76,3.09-2.89.85-5.71,1.81-8.48,2.88-45.99,17.74-75.24,65.23-68.36,115.8-1.92-5.71-3.39-11.65-4.36-17.79-4.04-25.64,1.25-50.59,13.35-71.4-24.35-10.17-52.24-11.92-78.95-3.2.72-33.69,2.49-65.31,5.17-93.9-6.55,5.53-13.71,9.74-21.33,12.39-2.3,27.83-3.77,58.25-4.29,90.46-.33.18-.65.37-.98.56-2.27-32.34-5.4-62.82-9.23-90.63-7.75-2.23-15.13-6.05-21.97-11.21,5.15,34.63,9.2,73.82,11.8,115.87-4.1,3.69-7.91,7.65-11.4,11.85,6.91,9.58,11.78,20.85,13.82,33.3,2.49,15.15.48,29.99-5.05,43.18,1.63-8.76,1.8-17.94.27-27.23-4.17-25.35-20-45.88-41.11-56.99-3.02-1.59-6.15-2.99-9.37-4.18-8.28-3.07-17.15-4.77-26.3-4.87-4.54-.05-9.15.29-13.78,1.05-.9.15-1.79.32-2.68.49-26.53,5.29-47.45,23.46-57.26,46.88,2.7-14.45,9.39-27.73,19.07-38.43-19.83-34.3-57.53-53.8-96.2-51.13,1.46,4.43,3.05,8.85,4.78,13.25,50.08,127.25,193.83,189.81,321.08,139.74,73.23-28.82,125.03-88.65,146.28-158.51-2.49-.56-5.01-1.04-7.55-1.43Z"/>
      <path class="cls-2" d="M217.61,124.57c10.02,11.39,20.03,22.78,30.05,34.17,9.79-11.85,19.57-23.69,29.36-35.54,7.63,11.87,15.25,23.74,22.88,35.61h39.45L247.66,0l-91.69,158.81h39.45c7.4-11.41,14.79-22.83,22.19-34.24ZM247.83,74.09c5.96,9.49,11.93,18.97,17.89,28.46l-17.89,17.89-17.89-17.89c5.96-9.49,11.93-18.97,17.89-28.46Z"/>
    </g>
  </g>
</svg>